<mxfile host="app.diagrams.net" modified="2024-06-04T15:05:50.406Z" agent="Mozilla/5.0 (Macintosh; Intel Mac OS X 10.15; rv:125.0) Gecko/20100101 Firefox/125.0" etag="eaL9b0ycGxRBeFmTFWeV" version="24.4.13" type="device">
  <diagram name="PÃ¡gina-1" id="IV-rjdHvHGz0G67KXJbl">
    <mxGraphModel dx="1434" dy="708" grid="1" gridSize="10" guides="1" tooltips="1" connect="1" arrows="1" fold="1" page="1" pageScale="1" pageWidth="827" pageHeight="1169" math="0" shadow="0">
      <root>
        <mxCell id="0" />
        <mxCell id="1" parent="0" />
        <mxCell id="uHQS6SmP5Ppz4d3gWPXU-2" value="" style="rounded=0;whiteSpace=wrap;html=1;" vertex="1" parent="1">
          <mxGeometry x="120" y="200" width="570" height="40" as="geometry" />
        </mxCell>
        <mxCell id="uHQS6SmP5Ppz4d3gWPXU-11" value="" style="group" vertex="1" connectable="0" parent="1">
          <mxGeometry x="150" y="150" width="24" height="100" as="geometry" />
        </mxCell>
        <mxCell id="uHQS6SmP5Ppz4d3gWPXU-12" value="" style="rounded=0;whiteSpace=wrap;html=1;strokeColor=none;" vertex="1" parent="uHQS6SmP5Ppz4d3gWPXU-11">
          <mxGeometry x="4" width="16" height="100" as="geometry" />
        </mxCell>
        <mxCell id="uHQS6SmP5Ppz4d3gWPXU-13" value="" style="curved=1;endArrow=none;html=1;rounded=0;endFill=0;" edge="1" parent="uHQS6SmP5Ppz4d3gWPXU-11">
          <mxGeometry width="50" height="50" relative="1" as="geometry">
            <mxPoint y="100" as="sourcePoint" />
            <mxPoint x="10" y="40" as="targetPoint" />
            <Array as="points">
              <mxPoint x="10" y="80" />
              <mxPoint y="50" />
            </Array>
          </mxGeometry>
        </mxCell>
        <mxCell id="uHQS6SmP5Ppz4d3gWPXU-14" value="" style="curved=1;endArrow=none;html=1;rounded=0;endFill=0;movable=1;resizable=1;rotatable=1;deletable=1;editable=1;locked=0;connectable=1;" edge="1" parent="uHQS6SmP5Ppz4d3gWPXU-11">
          <mxGeometry width="50" height="50" relative="1" as="geometry">
            <mxPoint x="14" y="100" as="sourcePoint" />
            <mxPoint x="24" y="40" as="targetPoint" />
            <Array as="points">
              <mxPoint x="24" y="80" />
              <mxPoint x="14" y="50" />
            </Array>
          </mxGeometry>
        </mxCell>
        <mxCell id="uHQS6SmP5Ppz4d3gWPXU-15" value="" style="group" vertex="1" connectable="0" parent="1">
          <mxGeometry x="630" y="150" width="24" height="100" as="geometry" />
        </mxCell>
        <mxCell id="uHQS6SmP5Ppz4d3gWPXU-16" value="" style="rounded=0;whiteSpace=wrap;html=1;strokeColor=none;" vertex="1" parent="uHQS6SmP5Ppz4d3gWPXU-15">
          <mxGeometry x="4" width="16" height="100" as="geometry" />
        </mxCell>
        <mxCell id="uHQS6SmP5Ppz4d3gWPXU-17" value="" style="curved=1;endArrow=none;html=1;rounded=0;endFill=0;" edge="1" parent="uHQS6SmP5Ppz4d3gWPXU-15">
          <mxGeometry width="50" height="50" relative="1" as="geometry">
            <mxPoint y="100" as="sourcePoint" />
            <mxPoint x="10" y="40" as="targetPoint" />
            <Array as="points">
              <mxPoint x="10" y="80" />
              <mxPoint y="50" />
            </Array>
          </mxGeometry>
        </mxCell>
        <mxCell id="uHQS6SmP5Ppz4d3gWPXU-18" value="" style="curved=1;endArrow=none;html=1;rounded=0;endFill=0;movable=1;resizable=1;rotatable=1;deletable=1;editable=1;locked=0;connectable=1;" edge="1" parent="uHQS6SmP5Ppz4d3gWPXU-15">
          <mxGeometry width="50" height="50" relative="1" as="geometry">
            <mxPoint x="14" y="100" as="sourcePoint" />
            <mxPoint x="24" y="40" as="targetPoint" />
            <Array as="points">
              <mxPoint x="24" y="80" />
              <mxPoint x="14" y="50" />
            </Array>
          </mxGeometry>
        </mxCell>
        <mxCell id="uHQS6SmP5Ppz4d3gWPXU-20" value="Header" style="rounded=0;whiteSpace=wrap;html=1;fontSize=10;" vertex="1" parent="1">
          <mxGeometry x="280" y="200" width="40" height="40" as="geometry" />
        </mxCell>
        <mxCell id="uHQS6SmP5Ppz4d3gWPXU-21" value="slot 1" style="rounded=0;whiteSpace=wrap;html=1;fontSize=10;" vertex="1" parent="1">
          <mxGeometry x="320" y="200" width="40" height="40" as="geometry" />
        </mxCell>
        <mxCell id="uHQS6SmP5Ppz4d3gWPXU-22" value="Header" style="rounded=0;whiteSpace=wrap;html=1;fontSize=10;" vertex="1" parent="1">
          <mxGeometry x="480" y="200" width="40" height="40" as="geometry" />
        </mxCell>
        <mxCell id="uHQS6SmP5Ppz4d3gWPXU-23" value="slot 1" style="rounded=0;whiteSpace=wrap;html=1;fontSize=10;" vertex="1" parent="1">
          <mxGeometry x="520" y="200" width="40" height="40" as="geometry" />
        </mxCell>
        <mxCell id="uHQS6SmP5Ppz4d3gWPXU-24" value="..." style="rounded=0;whiteSpace=wrap;html=1;strokeColor=none;" vertex="1" parent="1">
          <mxGeometry x="400" y="210" width="50" height="20" as="geometry" />
        </mxCell>
        <mxCell id="uHQS6SmP5Ppz4d3gWPXU-25" value="" style="curved=1;endArrow=openThin;html=1;rounded=0;entryX=0;entryY=0;entryDx=0;entryDy=0;endFill=0;" edge="1" parent="1" target="uHQS6SmP5Ppz4d3gWPXU-20">
          <mxGeometry width="50" height="50" relative="1" as="geometry">
            <mxPoint x="540" y="210" as="sourcePoint" />
            <mxPoint x="590" y="160" as="targetPoint" />
            <Array as="points">
              <mxPoint x="550" y="160" />
              <mxPoint x="370" y="160" />
              <mxPoint x="280" y="160" />
            </Array>
          </mxGeometry>
        </mxCell>
        <mxCell id="uHQS6SmP5Ppz4d3gWPXU-27" value="" style="curved=1;endArrow=none;html=1;rounded=0;exitX=0;exitY=1;exitDx=0;exitDy=0;startArrow=openThin;startFill=0;endFill=0;" edge="1" parent="1" source="uHQS6SmP5Ppz4d3gWPXU-22">
          <mxGeometry width="50" height="50" relative="1" as="geometry">
            <mxPoint x="540" y="270" as="sourcePoint" />
            <mxPoint x="340" y="230" as="targetPoint" />
            <Array as="points">
              <mxPoint x="490" y="280" />
              <mxPoint x="400" y="280" />
              <mxPoint x="340" y="280" />
            </Array>
          </mxGeometry>
        </mxCell>
      </root>
    </mxGraphModel>
  </diagram>
</mxfile>
